<?xml version="1.0" standalone="no"?>
<!DOCTYPE svg PUBLIC "-//W3C//DTD SVG 20010904//EN"
 "http://www.w3.org/TR/2001/REC-SVG-20010904/DTD/svg10.dtd">
<svg version="1.0" xmlns="http://www.w3.org/2000/svg"
 width="512.000000pt" height="512.000000pt" viewBox="0 0 512.000000 512.000000"
 preserveAspectRatio="xMidYMid meet">

<g transform="translate(0.000000,512.000000) scale(0.100000,-0.100000)"
fill="#000000" stroke="none">
<path d="M309 4851 l-29 -29 0 -2197 c0 -2400 -4 -2239 57 -2264 21 -8 600
-11 2291 -9 l2264 3 24 28 c35 41 33 99 -5 138 l-29 29 -2201 0 -2201 0 0
2125 c0 2296 3 2167 -49 2195 -39 20 -91 12 -122 -19z"/>
<path d="M4260 4423 c-324 -31 -589 -128 -808 -293 -378 -285 -600 -719 -712
-1390 -38 -225 -69 -356 -122 -509 -184 -534 -524 -817 -1068 -891 -47 -7
-183 -15 -303 -18 l-219 -7 -30 -34 c-26 -29 -30 -39 -25 -75 4 -27 15 -49 32
-63 25 -22 34 -23 193 -23 386 1 643 50 887 170 150 73 254 150 371 272 245
257 385 586 478 1123 43 244 65 341 112 487 214 663 642 1015 1279 1053 128 8
161 18 180 56 24 45 19 77 -19 115 -33 33 -36 34 -112 32 -44 0 -95 -3 -114
-5z"/>
</g>
</svg>
