<?xml version="1.0" encoding="utf-8"?>
<!-- Generator: Adobe Illustrator 27.5.0, SVG Export Plug-In . SVG Version: 6.00 Build 0)  -->
<svg version="1.1" id="Capa_1" xmlns="http://www.w3.org/2000/svg" xmlns:xlink="http://www.w3.org/1999/xlink" x="0px" y="0px"
	 viewBox="0 0 3968.5 3968.5" style="enable-background:new 0 0 3968.5 3968.5;" xml:space="preserve">
<radialGradient id="SVGID_1_" cx="1986.8477" cy="1984.25" r="1984.25" gradientUnits="userSpaceOnUse">
	<stop  offset="0" style="stop-color:#FFFFFF"/>
	<stop  offset="0.6096" style="stop-color:#FDFDFE"/>
	<stop  offset="0.829" style="stop-color:#F8F6F9"/>
	<stop  offset="0.985" style="stop-color:#EEEBF1"/>
	<stop  offset="1" style="stop-color:#EDE9F0"/>
</radialGradient>
<rect x="2.598" style="fill:url(#SVGID_1_);" width="3968.5" height="3968.5"/>
<g>
	<path style="fill:#FFFFFF;" d="M1986.618,2862.271c62.793,0,123.663,9.447,177.598,27.451L1986.83,893.903l-177.374,1995.671
		C1863.279,2871.67,1924.007,2862.271,1986.618,2862.271z"/>
	<path style="fill:#FFFFFF;" d="M487.559,2045.342c1.8,56.001,13.698,110.338,35.434,161.728
		c22.868,54.064,55.607,102.623,97.31,144.326c41.703,41.702,90.261,74.442,144.326,97.31
		c55.966,23.672,115.426,35.675,176.727,35.675c61.301,0,120.761-12.003,176.728-35.675c54.065-22.867,102.623-55.607,144.326-97.31
		c41.703-41.703,74.443-90.262,97.311-144.326c21.736-51.39,33.633-105.727,35.434-161.728H487.559z"/>
	<path style="fill:#FFFFFF;" d="M1656.95,3061.725h659.335c-6.219-42.16-38.57-81.838-92.665-113.041
		c-63.064-36.378-147.233-56.412-237.002-56.412c-89.769,0-173.938,20.034-237.002,56.412
		C1695.521,2979.887,1663.169,3019.564,1656.95,3061.725z"/>
	<path style="fill:#FFFFFF;" d="M2578.505,2045.342c1.801,56.001,13.698,110.338,35.434,161.728
		c22.868,54.064,55.607,102.623,97.311,144.326c41.703,41.702,90.262,74.442,144.326,97.31
		c55.966,23.672,115.426,35.675,176.728,35.675s120.762-12.003,176.728-35.675c54.064-22.867,102.623-55.607,144.326-97.31
		c41.703-41.703,74.442-90.262,97.311-144.326c21.735-51.39,33.633-105.727,35.434-161.728H2578.505z"/>
	<g>
		<g>
			<path style="fill:#D6C9B9;" d="M2030.096,1211.265l-29.96-337.086c-6.256,0.56-12.511,1.121-18.767,1.682
				c-2.653,0-5.31-0.107-7.968-0.295L1792.432,2911.68c27.08-10.622,56.914-19.078,88.75-24.954L2030.096,1211.265z"/>
			<path style="fill:#D6C9B9;" d="M2073.149,2877.272c-14.655,0-29.092,0.535-43.267,1.556
				c55.641,4.009,107.175,15.638,151.361,33.027l-2.226-25.048C2145.651,2880.621,2110.08,2877.272,2073.149,2877.272z"/>
		</g>
		<path d="M2181.241,2926.855c-1.853,0-3.716-0.343-5.492-1.042c-55.756-21.943-121.156-33.542-189.131-33.542
			c-67.794,0-133.048,11.54-188.708,33.372c-4.838,1.897-10.311,1.156-14.469-1.958c-4.159-3.114-6.41-8.159-5.95-13.334
			l180.968-2036.114c0.724-8.148,7.827-14.21,16.001-13.635c2.176,0.154,4.281,0.24,6.267,0.255l18.071-1.619
			c3.957-0.354,7.906,0.879,10.96,3.433c3.054,2.553,4.967,6.215,5.319,10.18l181.035,2036.873c0.099,0.696,0.15,1.408,0.15,2.131
			c0,8.247-6.656,14.94-14.89,15C2181.329,2926.855,2181.285,2926.855,2181.241,2926.855z M1986.618,2862.271
			c62.793,0,123.663,9.447,177.598,27.451L1986.83,893.903l-177.374,1995.671C1863.279,2871.67,1924.007,2862.271,1986.618,2862.271
			z"/>
	</g>
	<g>
		<rect x="941.357" y="953.145" style="fill:#E0CE86;" width="2090.946" height="48.668"/>
		<path d="M3032.303,1016.813H941.356c-8.284,0-15-6.715-15-15v-48.668c0-8.285,6.716-15,15-15h2090.946c8.284,0,15,6.715,15,15
			v48.668C3047.303,1010.097,3040.587,1016.813,3032.303,1016.813z M956.356,986.813h2060.946v-18.668H956.356V986.813z"/>
	</g>
	<g>
		<path d="M1336.554,1925.796c-5.784,0-11.294-3.364-13.755-9.004l-386.601-885.824l-386.601,885.824
			c-3.313,7.592-12.155,11.063-19.748,7.748c-7.593-3.313-11.061-12.155-7.747-19.748L922.45,987.468c2.386-5.466,7.783-9,13.748-9
			c5.964,0,11.362,3.534,13.748,9l400.348,917.324c3.313,7.593-0.155,16.434-7.748,19.748
			C1340.593,1925.393,1338.556,1925.796,1336.554,1925.796z"/>
	</g>
	<g>
		<path d="M3432.659,1925.796c-5.784,0-11.294-3.364-13.756-9.004l-386.601-885.824l-386.6,885.824
			c-3.314,7.592-12.155,11.063-19.748,7.748c-7.593-3.313-11.062-12.155-7.748-19.748l400.348-917.324c2.386-5.466,7.784-9,13.748-9
			s11.362,3.534,13.748,9l400.349,917.324c3.313,7.593-0.155,16.434-7.748,19.748
			C3436.698,1925.393,3434.662,1925.796,3432.659,1925.796z"/>
	</g>
	<g>
		<path style="fill:#E0CE86;" d="M936.198,899.966c-42.809,0-77.513,34.704-77.513,77.513s34.704,77.513,77.513,77.513
			c42.809,0,77.513-34.704,77.513-77.513C1013.711,934.669,979.007,899.966,936.198,899.966z"/>
		<path d="M936.197,1069.992c-51.012,0-92.513-41.501-92.513-92.513s41.501-92.513,92.513-92.513
			c51.012,0,92.513,41.501,92.513,92.513S987.209,1069.992,936.197,1069.992z M936.198,914.966
			c-34.47,0-62.513,28.043-62.513,62.513c0,34.47,28.043,62.513,62.513,62.513c34.47,0,62.513-28.044,62.513-62.513
			C998.71,943.009,970.667,914.966,936.198,914.966z"/>
	</g>
	<g>
		<path style="fill:#E0CE86;" d="M3032.303,899.966c-42.809,0-77.513,34.704-77.513,77.513c0,42.809,34.704,77.513,77.513,77.513
			c42.809,0,77.513-34.704,77.513-77.513C3109.816,934.669,3075.112,899.966,3032.303,899.966z"/>
		<path d="M3032.303,1069.992c-51.012,0-92.513-41.501-92.513-92.513s41.501-92.513,92.513-92.513s92.513,41.501,92.513,92.513
			S3083.314,1069.992,3032.303,1069.992z M3032.303,914.966c-34.47,0-62.513,28.043-62.513,62.513
			c0,34.47,28.043,62.513,62.513,62.513s62.513-28.044,62.513-62.513C3094.815,943.009,3066.772,914.966,3032.303,914.966z"/>
	</g>
	<g>
		<rect x="1958.819" y="707.777" style="fill:#E0CE86;" width="56.021" height="143.08"/>
		<path d="M2014.841,865.856h-56.022c-8.284,0-15-6.716-15-15V707.777c0-8.284,6.716-15,15-15h56.022c8.284,0,15,6.716,15,15
			v143.079C2029.841,859.141,2023.125,865.856,2014.841,865.856z M1973.819,835.856h26.022V722.777h-26.022V835.856z"/>
	</g>
	<g>
		<rect x="1915.29" y="651.755" style="fill:#E0CE86;" width="143.08" height="56.022"/>
		<path d="M2058.369,722.776H1915.29c-8.284,0-15-6.716-15-15l0-56.022c0-3.978,1.58-7.793,4.394-10.607
			c2.813-2.813,6.628-4.393,10.606-4.393h143.08c8.284,0,15,6.716,15,15v56.022C2073.369,716.06,2066.653,722.776,2058.369,722.776z
			 M1930.29,692.776h113.079v-26.022h-113.08L1930.29,692.776z"/>
	</g>
	<g>
		<path style="fill:#D6C9B9;" d="M702.77,2030.342H472.318c0,259.042,209.996,469.038,469.038,469.038
			c39.759,0,78.36-4.955,115.226-14.267C853.253,2433.754,702.77,2249.625,702.77,2030.342z"/>
		<path style="fill:#D6C9B9;" d="M2786.381,2030.342h-230.451c0,259.042,209.996,469.038,469.039,469.038
			c39.759,0,78.359-4.955,115.226-14.267C2936.864,2433.754,2786.381,2249.625,2786.381,2030.342z"/>
		<path d="M941.356,2514.38c-65.338,0-128.729-12.8-188.414-38.044c-57.641-24.38-109.404-59.279-153.853-103.728
			c-44.449-44.448-79.348-96.212-103.728-153.853c-25.245-59.685-38.044-123.076-38.044-188.414c0-8.284,6.716-15,15-15h938.077
			c8.284,0,15,6.716,15,15c0,65.338-12.8,128.729-38.044,188.414c-24.38,57.641-59.279,109.404-103.727,153.853
			s-96.212,79.348-153.853,103.728C1070.086,2501.58,1006.695,2514.38,941.356,2514.38z M487.559,2045.342
			c1.8,56.001,13.698,110.338,35.434,161.728c22.868,54.064,55.607,102.623,97.31,144.326
			c41.703,41.702,90.261,74.442,144.326,97.31c55.966,23.672,115.426,35.675,176.727,35.675c61.301,0,120.761-12.003,176.728-35.675
			c54.065-22.867,102.623-55.607,144.326-97.31c41.703-41.703,74.443-90.262,97.311-144.326
			c21.736-51.39,33.633-105.727,35.434-161.728H487.559z"/>
	</g>
	<g>
		<path style="fill:#E0CE86;" d="M1433.434,2030.342H449.279c-32.682,0-59.177-26.494-59.177-59.177v-1.195
			c0-32.682,26.494-59.177,59.177-59.177h984.155c32.682,0,59.177,26.494,59.177,59.177v1.195
			C1492.611,2003.847,1466.116,2030.342,1433.434,2030.342z"/>
		<path d="M1433.434,2045.342H449.279c-40.901,0-74.177-33.275-74.177-74.177v-1.195c0-40.901,33.275-74.177,74.177-74.177h984.155
			c40.901,0,74.177,33.275,74.177,74.177v1.195C1507.611,2012.066,1474.335,2045.342,1433.434,2045.342z M449.279,1925.792
			c-24.359,0-44.177,19.818-44.177,44.177v1.195c0,24.36,19.818,44.177,44.177,44.177h984.155c24.359,0,44.177-19.817,44.177-44.177
			v-1.195c0-24.359-19.818-44.177-44.177-44.177H449.279z"/>
	</g>
	<g>
		<path style="fill:#D6C9B9;" d="M2098.775,2888.007c-35.172-6.954-72.897-10.735-112.157-10.735
			c-190.964,0-345.771,89.298-345.771,199.453h224.313C1865.16,2989.216,1962.864,2914.877,2098.775,2888.007z"/>
		<path d="M2332.389,3091.725h-691.542c-3.979,0-7.793-1.58-10.606-4.394c-2.813-2.813-4.394-6.628-4.394-10.606
			c0-30.184,10.119-59.289,30.076-86.506c18.654-25.44,45.134-48.157,78.704-67.521c67.551-38.966,157.043-60.426,251.992-60.426
			c94.948,0,184.441,21.46,251.992,60.426c33.569,19.364,60.049,42.081,78.703,67.521c19.957,27.218,30.075,56.322,30.075,86.506
			C2347.389,3085.009,2340.673,3091.725,2332.389,3091.725z M1656.95,3061.725h659.335c-6.219-42.16-38.57-81.838-92.665-113.041
			c-63.064-36.378-147.233-56.412-237.002-56.412c-89.769,0-173.938,20.034-237.002,56.412
			C1695.521,2979.887,1663.169,3019.564,1656.95,3061.725z"/>
	</g>
	<g>
		<path style="fill:#E0CE86;" d="M1566.448,3076.725l840.339,0c17.611,0,31.887,14.276,31.887,31.887v0.644
			c0,17.61-14.276,31.886-31.887,31.886l-840.339,0c-17.611,0-31.887-14.276-31.887-31.886v-0.644
			C1534.562,3091.001,1548.838,3076.725,1566.448,3076.725z"/>
		<path d="M2406.787,3156.143h-840.339c-25.854,0-46.887-21.033-46.887-46.887v-0.645c0-25.854,21.033-46.887,46.887-46.887h840.339
			c12.524,0,24.299,4.877,33.154,13.732c8.856,8.856,13.733,20.631,13.732,33.155v0.644
			C2453.674,3135.109,2432.641,3156.143,2406.787,3156.143z M1566.448,3091.725c-9.312,0-16.887,7.575-16.887,16.887v0.645
			c0,9.312,7.575,16.887,16.887,16.887h840.339c9.312,0,16.887-7.575,16.887-16.887v-0.645c0-4.511-1.756-8.751-4.945-11.94
			s-7.431-4.946-11.941-4.946H1566.448z"/>
	</g>
	<path d="M740.882,2386.725c-2.812,0-5.66-0.732-8.254-2.269c-5.587-3.313-10.888-6.859-16.015-10.288
		c-3.73-2.494-7.253-4.852-10.847-7.104c-46.126-28.905-68.898-56.371-86.635-81.748c-22.526-32.226-43.967-64.135-58.725-100.168
		c-3.394-8.288,0.572-17.758,8.86-21.152c8.287-3.393,17.757,0.572,21.151,8.859c13.497,32.953,33.857,63.211,55.295,93.88
		c18.232,26.086,38.351,48.456,77.274,72.847c4.003,2.508,7.895,5.112,11.658,7.628c4.986,3.335,9.696,6.485,14.523,9.347
		c7.703,4.568,10.246,14.515,5.679,22.218C751.816,2383.886,746.42,2386.725,740.882,2386.725z"/>
	<path d="M1890.506,2783.487c-0.445,0-0.893-0.02-1.345-0.06c-8.251-0.733-14.346-8.018-13.613-16.27l65.73-739.547
		c0.733-8.252,8.016-14.345,16.269-13.613c8.251,0.733,14.346,8.018,13.613,16.27l-65.73,739.547
		C1904.736,2777.614,1898.19,2783.487,1890.506,2783.487z"/>
	<g>
		<path d="M1089.067,1995.668H464.251c-8.284,0-15-6.716-15-15c0-8.284,6.716-15,15-15h624.816c8.284,0,15,6.716,15,15
			C1104.067,1988.953,1097.351,1995.668,1089.067,1995.668z"/>
	</g>
	<g>
		<path d="M3032.303,2514.38c-65.338,0-128.729-12.8-188.414-38.044c-57.641-24.38-109.404-59.279-153.853-103.728
			s-79.348-96.212-103.728-153.853c-25.244-59.685-38.044-123.076-38.044-188.414c0-8.284,6.716-15,15-15h938.076
			c8.284,0,15,6.716,15,15c0,65.338-12.8,128.729-38.044,188.414c-24.38,57.641-59.279,109.404-103.728,153.853
			s-96.212,79.348-153.853,103.728C3161.032,2501.58,3097.641,2514.38,3032.303,2514.38z M2578.505,2045.342
			c1.801,56.001,13.698,110.338,35.434,161.728c22.868,54.064,55.607,102.623,97.311,144.326
			c41.703,41.702,90.262,74.442,144.326,97.31c55.966,23.672,115.426,35.675,176.728,35.675s120.762-12.003,176.728-35.675
			c54.064-22.867,102.623-55.607,144.326-97.31c41.703-41.703,74.442-90.262,97.311-144.326
			c21.735-51.39,33.633-105.727,35.434-161.728H2578.505z"/>
	</g>
	<g>
		<path style="fill:#E0CE86;" d="M3524.38,2030.342h-984.155c-32.682,0-59.177-26.494-59.177-59.177v-1.195
			c0-32.682,26.494-59.177,59.177-59.177h984.155c32.682,0,59.177,26.494,59.177,59.177v1.195
			C3583.557,2003.847,3557.063,2030.342,3524.38,2030.342z"/>
		<path d="M3524.38,2045.342h-984.154c-40.901,0-74.177-33.275-74.177-74.177v-1.195c0-40.901,33.275-74.177,74.177-74.177h984.154
			c40.901,0,74.177,33.275,74.177,74.177v1.195C3598.557,2012.066,3565.281,2045.342,3524.38,2045.342z M2540.226,1925.792
			c-24.359,0-44.177,19.818-44.177,44.177v1.195c0,24.36,19.817,44.177,44.177,44.177h984.154c24.359,0,44.177-19.817,44.177-44.177
			v-1.195c0-24.359-19.817-44.177-44.177-44.177H2540.226z"/>
	</g>
	<path d="M2831.828,2386.725c-2.812,0-5.66-0.732-8.254-2.269c-5.587-3.313-10.888-6.859-16.015-10.288
		c-3.73-2.494-7.253-4.852-10.847-7.104c-46.126-28.905-68.898-56.371-86.635-81.748c-22.526-32.226-43.967-64.135-58.725-100.168
		c-3.394-8.288,0.572-17.758,8.86-21.152c8.287-3.393,17.757,0.572,21.151,8.859c13.497,32.953,33.857,63.211,55.295,93.88
		c18.232,26.086,38.351,48.456,77.274,72.847c4.003,2.508,7.895,5.112,11.658,7.628c4.986,3.335,9.696,6.485,14.523,9.347
		c7.703,4.568,10.246,14.515,5.679,22.218C2842.762,2383.886,2837.366,2386.725,2831.828,2386.725z"/>
	<g>
		<path d="M3180.014,1995.668h-624.816c-8.284,0-15-6.716-15-15c0-8.284,6.716-15,15-15h624.816c8.284,0,15,6.716,15,15
			C3195.014,1988.953,3188.298,1995.668,3180.014,1995.668z"/>
	</g>
	<g>
		
			<ellipse transform="matrix(0.7071 -0.7071 0.7071 0.7071 -109.2527 1691.1975)" style="fill:#FFFFFF;" cx="1986.83" cy="977.478" rx="126.622" ry="126.622"/>
	</g>
	<path style="fill:#D6C9B9;" d="M2061.356,1029.574c-69.931,0-126.622-56.691-126.622-126.622c0-15.537,2.804-30.418,7.924-44.171
		c-48.15,17.926-82.451,64.303-82.451,118.698c0,69.931,56.691,126.622,126.622,126.622c54.394,0,100.772-34.301,118.698-82.451
		C2091.774,1026.77,2076.893,1029.574,2061.356,1029.574z"/>
	<path d="M1986.83,1119.101c-78.091,0-141.623-63.531-141.623-141.622s63.531-141.622,141.622-141.622
		c78.091,0,141.622,63.531,141.622,141.622S2064.92,1119.101,1986.83,1119.101z M1986.829,865.856
		c-61.548,0-111.622,50.073-111.622,111.622s50.074,111.622,111.623,111.622c61.548,0,111.621-50.073,111.621-111.622
		S2048.378,865.856,1986.829,865.856z"/>
	<path d="M1997.725,1065.921c-54.775,0-99.337-44.562-99.337-99.337c0-9.025,7.316-16.342,16.342-16.342
		c9.025,0,16.342,7.317,16.342,16.342c0,36.753,29.901,66.653,66.654,66.653c9.025,0,16.342,7.317,16.342,16.342
		C2014.066,1058.604,2006.75,1065.921,1997.725,1065.921z"/>
</g>
</svg>
